<svg width="222" height="36" viewBox="0 0 222 36" fill="none" xmlns="http://www.w3.org/2000/svg">
<g id="Group 2">
<g id="kameleon">
<path id="Vector" d="M222 34.599H216.571L209.797 18.3464V34.599H203.426V1.34665H208.989L215.629 17.5992V1.34665H222V34.599Z" fill="white"/>
<path id="Vector_2" d="M199.418 17.9727C199.418 24.371 199.284 28.761 197.04 31.6099C195.605 33.478 193.496 34.9725 190.041 34.9725C186.587 34.9725 184.478 33.478 183.042 31.6099C180.799 28.761 180.665 24.371 180.665 17.9727C180.665 11.5744 180.799 7.18439 183.042 4.33553C184.478 2.46742 186.587 0.972931 190.041 0.972931C193.496 0.972931 195.605 2.46742 197.04 4.33553C199.284 7.18439 199.418 11.5744 199.418 17.9727ZM193.047 17.9727C193.047 13.9563 192.958 9.79974 192.195 8.25855C191.836 7.51131 191.208 6.95088 190.041 6.95088C188.875 6.95088 188.247 7.51131 187.888 8.25855C187.125 9.79974 187.035 13.9563 187.035 17.9727C187.035 21.9891 187.125 26.1457 187.888 27.6869C188.247 28.4341 188.875 28.9946 190.041 28.9946C191.208 28.9946 191.836 28.4341 192.195 27.6869C192.958 26.1457 193.047 21.9891 193.047 17.9727Z" fill="white"/>
<path id="Vector_3" d="M177.702 34.599H162.986V1.34665H177.702V7.32459H169.357V14.8437H176.535V20.8217H169.357V28.621H177.702V34.599Z" fill="white"/>
<path id="Vector_4" d="M159.431 34.599H144.716V1.34665H151.087V28.621H159.431V34.599Z" fill="white"/>
<path id="Vector_5" d="M140.811 34.599H126.095V1.34665H140.811V7.32459H132.466V14.8437H139.644V20.8217H132.466V28.621H140.811V34.599Z" fill="white"/>
<path id="Vector_6" d="M121.156 34.599H114.785V17.2723L111.285 28.6677H108.01L104.6 17.319V34.599H98.2295V1.34665H103.838L109.67 17.6459L115.503 1.34665H121.156V34.599Z" fill="white"/>
<path id="Vector_7" d="M95.5116 34.599H88.8716L87.8397 29.415H80.4818L79.4499 34.599H72.8099L81.0202 1.34665H87.3013L95.5116 34.599ZM86.6283 23.437L84.1607 11.1075L81.6932 23.437H86.6283Z" fill="white"/>
<path id="Vector_8" d="M71.8365 34.599H65.017L60.4408 22.4563L58.377 26.9397V34.599H52.0062V1.34665H58.377V15.6377L64.4338 1.34665H70.8046L64.4338 15.1706L71.8365 34.599Z" fill="white"/>
</g>
<path id="3797906-1 1 (Traced)" fill-rule="evenodd" clip-rule="evenodd" d="M24.8114 0.238501C24.2003 0.611083 24.151 0.809658 24.1479 2.91107C24.1464 4.00875 24.1001 4.90704 24.0453 4.90704C23.9905 4.90704 23.5174 4.59035 22.9943 4.20344C20.5566 2.40009 17.9487 1.55216 14.817 1.54418C12.2386 1.53742 10.8615 1.87336 8.63001 3.05273C2.06572 6.52246 -1.42431 15.3228 0.550002 23.4281C2.84014 32.8305 11.5937 38.2988 19.1797 35.066C22.6413 33.5908 25.8331 30.2423 27.466 26.3723C28.1807 24.6785 28.2207 24.3121 27.759 23.6809C27.1797 22.8889 26.5471 22.9708 24.6918 24.0772C20.964 26.3005 18.4138 27.2211 15.9834 27.2211C13.9857 27.2211 12.8779 26.8618 11.7907 25.8609C10.0416 24.251 9.02103 21.6407 9.46535 19.9133C9.89787 18.231 11.2908 17.3538 13.5292 17.3538C15.1065 17.3538 16.3378 18.0604 18.1066 19.9813C19.6798 21.6894 20.2273 21.903 20.9749 21.1001C21.34 20.7078 21.3916 20.3938 21.4481 18.2189L21.5113 15.7779L27.6351 15.7162L33.7587 15.6546L34.6429 15.0957C35.6357 14.4681 36.3395 13.6474 36.9521 12.4029C37.5263 11.2362 37.5339 8.87955 36.9677 7.55013C36.2455 5.85447 35.4865 5.27471 30.4175 2.54749C27.8068 1.14293 25.5631 -0.00326845 25.4316 7.00266e-06C25.2998 0.00348717 25.0208 0.110758 24.8114 0.238501ZM29.9424 7.35995C31.2329 7.8877 30.8476 10.0249 29.4619 10.0249C28.2281 10.0249 27.6829 8.39642 28.6444 7.58329C29.2191 7.09709 29.2757 7.08747 29.9424 7.35995Z" fill="white"/>
</g>
</svg>
